<?xml version="1.0" encoding="utf-8"?>
<!-- Generator: Adobe Illustrator 23.0.1, SVG Export Plug-In . SVG Version: 6.00 Build 0)  -->
<svg version="1.1" id="Ebene_1" xmlns="http://www.w3.org/2000/svg" xmlns:xlink="http://www.w3.org/1999/xlink" x="0px" y="0px"
	 viewBox="0 0 1920 1080" style="enable-background:new 0 0 1920 1080;" xml:space="preserve">
<style type="text/css">
	.st0{opacity:0.11;fill:#858686;}
	.st1{opacity:0.31;}
	.st2{fill:url(#SVGID_1_);}
	.st3{fill:#23A3DD;}
	.st4{clip-path:url(#SVGID_3_);fill:#FFFFFF;}
	.st5{fill:#FFFFFF;}
	.st6{clip-path:url(#SVGID_5_);fill:#FFFFFF;}
</style>
	<path class="st0" d="M1269.91,1006.46c7.31,8.66,19.62,10.59,29.12,5.15l20.74,24.79c0.15-0.17,0.33-0.31,0.48-0.47
	c-6.06,6.79-7.99,16.15-5.46,24.59l-34.56,17.04c-5.48-6.41-15.1-7.21-21.55-1.76c-6.48,5.46-7.3,15.14-1.83,21.62
	c5.46,6.48,15.14,7.3,21.62,1.83c4.27-3.6,6.02-9.02,5.2-14.16l34.74-17.14c0.59,0.83,1.21,1.64,1.91,2.42
	c8.23,9.15,21.8,11.03,32.18,4.99l15.17,17.52c-5.92,8.39-5.72,20,1.21,28.21c8.23,9.76,22.82,10.99,32.57,2.76
	c6.23-5.26,8.97-13.11,8-20.64l65.16-22.75c1.71,3.66,3.88,7.18,6.62,10.42c8.79,10.42,21.15,16.01,33.78,16.59l16.46,97.68
	c-3.25,1.12-6.36,2.82-9.15,5.17c-12.13,10.24-13.67,28.37-3.43,40.5c10.24,12.13,28.37,13.67,40.5,3.43
	c12.13-10.24,13.67-28.37,3.43-40.5c-5.69-6.74-13.81-10.2-21.99-10.19l-16.28-96.63c8.17-1.3,16.11-4.72,22.89-10.44
	c19.83-16.73,22.34-46.38,5.61-66.21c-1.19-1.41-2.47-2.72-3.78-3.95l54.87-71.86c26.88,17.94,63.37,16.88,89.31-5
	c31.43-26.52,35.41-73.49,8.89-104.92c-26.52-31.43-73.49-35.41-104.92-8.89s-35.41,73.49-8.89,104.92
	c2.51,2.97,5.25,5.62,8.09,8.09l-54.89,71.89c-16.8-10.32-38.99-9.3-54.88,4.11c-14.02,11.83-19.34,30.11-15.36,46.83l-65.17,22.76
	c-0.62-1.03-1.3-2.03-2.1-2.97c-7.43-8.81-20.02-10.64-29.58-4.87l-14.94-17.25c7.68-9.64,7.61-23.77-1.02-33.35
	c-0.31-0.34-0.65-0.65-0.97-0.98l24.59-34.26c16.11,7.6,35.85,5.69,50.35-6.54c19.83-16.73,22.34-46.38,5.61-66.21
	c-16.73-19.83-46.38-22.34-66.21-5.61c-19.83,16.73-22.34,46.38-5.61,66.21c2.57,3.04,5.47,5.63,8.56,7.85l-24.15,33.65
	c-7.72-3.74-17.03-3.47-24.59,1.06l-20.72-24.85c6.88-8.45,7.01-20.84-0.27-29.47c-8.23-9.76-22.82-10.99-32.57-2.76
	C1262.91,982.12,1261.67,996.71,1269.91,1006.46z"/>
	<g class="st1">
	<linearGradient id="SVGID_1_" gradientUnits="userSpaceOnUse" x1="2053.2361" y1="691.7183" x2="1498.3507" y2="226.1142">
		<stop  offset="0" style="stop-color:#23A3DD;stop-opacity:0.6"/>
		<stop  offset="0.0585" style="stop-color:#37ABE0;stop-opacity:0.6234"/>
		<stop  offset="0.2489" style="stop-color:#73C5E9;stop-opacity:0.6996"/>
		<stop  offset="0.4321" style="stop-color:#A5D9F1;stop-opacity:0.7729"/>
		<stop  offset="0.6035" style="stop-color:#CCEAF7;stop-opacity:0.8414"/>
		<stop  offset="0.7603" style="stop-color:#E8F5FB;stop-opacity:0.9041"/>
		<stop  offset="0.8975" style="stop-color:#F9FCFE;stop-opacity:0.959"/>
		<stop  offset="1" style="stop-color:#FFFFFF"/>
	</linearGradient>
		<path class="st2" d="M1635.4,64.13c-56.56,54.1-58.55,143.81-4.45,200.37c17.94,18.75,39.79,31.5,63.06,38.2l-82.42,242.1
		c-25.89-5.89-54.14,0.44-75.09,19.24c-36.24,32.53-37.49,88.78-2.73,122.89c29.29,28.74,75.26,31.71,107.97,8.28l121.05,109.02
		c-18.24,28.61-15.38,67,9.12,92.62c28.79,30.1,76.52,31.16,106.62,2.37s31.16-76.52,2.37-106.62
		c-27.29-28.53-71.59-30.95-101.77-6.61L1659.4,678.15c25.58-33.12,23.24-81.16-7.8-111.58c-5.24-5.14-11.02-9.43-17.16-12.92
		l83.82-246.21c40.06,4.27,81.66-8.47,113.06-38.49c56.56-54.1,58.55-143.81,4.45-200.37S1691.96,10.02,1635.4,64.13z"/>
</g>
	<path class="st0" d="M133.21,795.91c-11.31-9.37-13.95-25.29-7.02-37.65l-32.35-26.57c0.21-0.19,0.4-0.43,0.61-0.62
	c-8.72,7.93-20.82,10.53-31.78,7.35l-21.67,44.96c8.36,7.02,9.51,19.47,2.54,27.89c-7,8.45-19.53,9.63-27.98,2.63
	c-8.45-7-9.63-19.53-2.63-27.98c4.61-5.57,11.61-7.91,18.28-6.9l21.78-45.19c-1.08-0.75-2.14-1.55-3.15-2.45
	c-11.94-10.55-14.54-28.1-6.84-41.61l-22.87-19.44c-10.79,7.76-25.83,7.64-36.55-1.23c-12.73-10.55-14.5-29.42-3.96-42.15
	c6.74-8.13,16.87-11.77,26.63-10.6l28.7-84.66c-4.77-2.18-9.35-4.94-13.58-8.44C7.8,511.98,0.42,496.04-0.48,479.7l-126.69-20.16
	c-1.42,4.22-3.58,8.27-6.59,11.91c-13.11,15.83-36.58,18.04-52.41,4.92c-15.83-13.11-18.04-36.58-4.92-52.41
	c13.11-15.83,36.58-18.04,52.41-4.92c8.8,7.29,13.37,17.77,13.46,28.36L0.11,467.34c1.58-10.6,5.92-20.92,13.25-29.77
	c21.44-25.88,59.8-29.48,85.68-8.05c1.85,1.53,3.55,3.16,5.16,4.85l92.42-71.9c-23.55-34.59-22.61-81.87,5.42-115.72
	c33.97-41.01,94.76-46.72,135.77-12.75c41.01,33.97,46.72,94.76,12.75,135.77s-94.76,46.72-135.77,12.75
	c-3.88-3.21-7.33-6.73-10.58-10.38l-92.46,71.94c13.57,21.64,12.51,50.38-4.67,71.12c-15.16,18.3-38.77,25.4-60.46,20.45
	l-28.7,84.66c1.34,0.79,2.64,1.66,3.88,2.69c11.49,9.52,14.02,25.8,6.66,38.25l22.52,19.15c12.4-10.07,30.69-10.14,43.2,0.93
	c0.45,0.4,0.85,0.83,1.28,1.25l44.08-32.25c-10.03-20.78-7.8-46.36,7.88-65.28c21.44-25.88,59.8-29.48,85.68-8.05
	c25.88,21.44,29.48,59.8,8.05,85.68c-21.44,25.88-59.8,29.48-85.68,8.05c-3.97-3.29-7.35-7.01-10.26-10.99l-43.3,31.68
	c4.94,9.95,4.69,22.02-1.08,31.86l32.42,26.55c10.86-9.01,26.91-9.33,38.17,0c12.73,10.55,14.5,29.42,3.96,42.15
	C164.82,804.69,145.95,806.46,133.21,795.91z"/>
	<rect x="1" y="1040" class="st3" width="1919" height="40"/>
	<g id="Cloudogu_Bild-__x2B__Wortmarke_blau_1_">
	<g>
		<defs>
			<rect id="SVGID_2_" x="1633.1" y="93.9" width="204.34" height="145.33"/>
		</defs>
		<clipPath id="SVGID_3_">
			<use xlink:href="#SVGID_2_"  style="overflow:visible;"/>
		</clipPath>
		<path class="st4" d="M1753.18,100.43c-10.67-9.58-27.29-8.49-37.12,2.45c-6.69,7.45-8.42,17.49-5.53,26.19
			c0.09,0.28,0.33,0.49,0.63,0.54c0.58,0.09,1.11,0.4,1.38,1.01c0.62,1.41,1.42,2.7,2.3,3.93c0.29,0.4,0.86,0.45,1.21,0.11
			c1.54-1.53,3.03-2.88,5.28-3.39c0.26-0.06,0.47-0.24,0.57-0.48c0.01-0.01,0.01-0.02,0.02-0.04c0.12-0.26,0.39-0.99,0.22-1.23
			c-4.32-6.15-4.33-14.29,1.03-20.26c6.22-6.92,16.73-7.61,23.48-1.55c5.3,4.76,7.48,14.43,1.74,22.29
			c-0.11,0.15,3.01-2.4,3.07-2.23c0.16,0.44-0.78,0.18-1.06,0.52c-0.24,0.29-0.22,0.69,0,0.99c0.18,0.23,0.28,0.53,0.28,0.89
			c0,1.6-0.03,2.37,1.41,3.25c0.54,0.33,1.04,0.69,1.55,1.06c0.41,0.3,0.99,0.15,1.2-0.32c0.59-1.33,1.54-2.49,2.83-3.51
			c0.37-0.29,0.78-0.39,1.18-0.37c0.34,0.02,0.65-0.18,0.78-0.49C1763.76,119.77,1761.54,107.94,1753.18,100.43L1753.18,100.43z"/>
	</g>
		<path class="st5" d="M1723.17,131.45c-6.46-13.22-22.15-18.82-35.05-12.51c-12.88,6.3-18.1,22.13-11.63,35.34
		c5.94,12.15,22.67,17.6,31.95,14.15c-0.32-1.17-0.69-2.72-0.88-3.92c0,0,0-0.01,0-0.01c-0.7-2-1.06-3.28-1.14-5.39
		c-11.58,0.02-17.4-0.96-21.34-9.02c-4.09-8.36-0.8-18.37,7.35-22.36c8.16-3.98,18.08-0.44,22.16,7.92c0.35,0.71,0.6,1.42,0.83,2.15
		c0,0,0.01-0.01,0.01-0.01c0-0.01,0-0.01,0.01-0.01c1.09-1.11,2.3-2.13,3.61-3.05c0.1-0.07,0.21-0.14,0.31-0.21
		c0.01-0.01,0.02-0.01,0.03-0.02c1.28-0.86,2.65-1.63,4.13-2.27C1723.39,131.97,1723.3,131.7,1723.17,131.45L1723.17,131.45z"/>
		<path class="st5" d="M1782.63,119c-12.89-6.31-28.59-0.7-35.05,12.51c-0.22,0.46-0.41,0.93-0.6,1.39c3,1.21,5.61,2.87,7.82,4.9
		c0.01,0.01,0.01,0.01,0.02,0.01c0.13,0.1,0.29,0.17,0.42,0.29c0.25-0.81,0.54-1.61,0.93-2.4c4.08-8.36,14.01-11.9,22.16-7.92
		c8.15,3.99,11.44,14,7.35,22.36c-3.94,8.07-13.07,9.12-21.33,8.91c-0.05,1.21-0.2,1.72-0.44,2.9c0,0,0,0.01,0,0.01
		c-0.06,1.04-0.16,2.07-0.3,3.09c0,0.01,0,0.02,0,0.03c-0.01,0.03-0.01,0.06-0.02,0.1c-0.16,1.06-0.35,2.1-0.61,3.13
		c7.67,3.57,25.43-2.02,31.28-13.97C1800.73,141.13,1795.51,125.3,1782.63,119L1782.63,119z"/>
		<path class="st5" d="M1746.93,159.07c-1.62,3.52-6.8,7.05-12.07,7.05c-5.27,0-10.13-3.53-11.74-7.05l-18.93,0.03l-0.62,10.36
		l65.43-0.06v-10.32H1746.93L1746.93,159.07z"/>
		<g>
		<defs>
			<rect id="SVGID_4_" x="1633.1" y="93.9" width="204.34" height="145.33"/>
		</defs>
			<clipPath id="SVGID_5_">
			<use xlink:href="#SVGID_4_"  style="overflow:visible;"/>
		</clipPath>
			<path class="st6" d="M1745.19,151.99c0,5.55-4.5,10.05-10.05,10.05c-5.55,0-10.05-4.5-10.05-10.05c0-5.55,4.5-10.05,10.05-10.05
			C1740.7,141.94,1745.19,146.44,1745.19,151.99L1745.19,151.99z M1762.12,145.5c-0.54-2.04-0.41-4.3,0.6-6.37
			c2.19-4.48,7.52-6.39,11.89-4.25c4.37,2.14,6.14,7.51,3.94,11.99c-2.19,4.49-7.51,6.38-11.88,4.24c-1.52-0.74-2.7-1.89-3.53-3.24
			C1762.84,147.07,1762.51,146.27,1762.12,145.5L1762.12,145.5z M1707.89,147.77c-0.83,1.35-2.01,2.5-3.53,3.23
			c-4.37,2.14-9.69,0.24-11.88-4.24c-2.19-4.49-0.43-9.85,3.94-11.99c4.37-2.14,9.69-0.23,11.89,4.25c1.01,2.07,1.15,4.33,0.6,6.37
			C1708.53,146.16,1708.2,146.96,1707.89,147.77L1707.89,147.77z M1729.59,127.45c-3.62-3.25-3.85-8.89-0.52-12.61
			c3.34-3.71,8.97-4.09,12.6-0.84c3.62,3.25,3.85,8.9,0.51,12.62c-1.3,1.44-3.27,2.63-5.16,2.66c-0.27-0.01-0.05,0.08-0.32,0.08
			c-0.94,0-1.85,0.06-2.73,0.16C1732.38,129.26,1730.86,128.59,1729.59,127.45L1729.59,127.45z M1726.02,147.81
			c-0.45,0.98-0.76,2.05-0.87,3.17l-16.84-4.25c0.19-0.45,0.38-0.89,0.6-1.32c0.16-0.6,0.25-1.21,0.29-1.84L1726.02,147.81
			L1726.02,147.81z M1761.82,143.57l-17.47,4.41c0.43,0.99,0.71,2.06,0.8,3.19l17.53-4.43c-0.18-0.42-0.36-0.83-0.57-1.23
			C1761.95,144.88,1761.85,144.23,1761.82,143.57L1761.82,143.57z M1737.01,129.25l-0.07,12.87c-0.58-0.11-1.18-0.17-1.79-0.17
			c-0.51,0-1,0.05-1.49,0.12l0.05-12.6C1733.75,129.48,1736.87,129.24,1737.01,129.25L1737.01,129.25z"/>
			<path class="st6" d="M1653.23,227.48c-1.3,0.34-3.84,0.73-7.29,0.73c-7.34,0-12.88-4.52-12.88-13.72v-5.25
			c0-9.21,5.53-13.72,12.88-13.72c3.45,0,5.99,0.4,7.29,0.73c0.96,0.23,1.19,0.56,1.19,1.47v3.67c0,0.56-0.45,0.85-1.02,0.85
			c-0.06,0-0.11,0-0.17,0c-2.26-0.28-3.61-0.39-7.29-0.39c-2.65,0-5.42,1.52-5.42,7.4v5.25c0,5.87,2.77,7.4,5.42,7.4
			c3.67,0,5.03-0.11,7.29-0.4c0.06,0,0.11,0,0.17,0c0.56,0,1.02,0.28,1.02,0.85v3.67C1654.42,226.92,1654.19,227.26,1653.23,227.48
			L1653.23,227.48z"/>
	</g>
		<path class="st5" d="M1662.77,227.77h-5.25c-0.62,0-1.13-0.57-1.13-1.19v-40.66c0-0.62,0.51-1.13,1.13-1.13h5.25
		c0.62,0,1.07,0.51,1.07,1.13v40.66C1663.84,227.2,1663.39,227.77,1662.77,227.77L1662.77,227.77z"/>
		<path class="st5" d="M1685.87,209.58c0-4.63-2.09-7.63-6.04-7.63c-3.95,0-6.04,2.99-6.04,7.63v4.57c0,4.63,2.09,7.62,6.04,7.62
		c3.95,0,6.04-2.99,6.04-7.62V209.58L1685.87,209.58z M1679.83,228.22c-8.87,0-13.5-5.99-13.5-14.06v-4.57
		c0-8.08,4.63-14.06,13.5-14.06c8.87,0,13.5,5.99,13.5,14.06v4.57C1693.33,222.23,1688.7,228.22,1679.83,228.22L1679.83,228.22z"/>
		<path class="st5" d="M1720.63,227.77h-5.2c-0.62,0-1.13-0.51-1.13-1.13v-1.3c-2.94,1.92-5.25,2.82-8.87,2.82
		c-2.82,0-5.31-0.73-6.95-2.37c-2.09-2.09-2.82-5.59-2.82-10.28V197.1c0-0.62,0.51-1.19,1.13-1.19h5.2c0.62,0,1.13,0.57,1.13,1.19
		v18.41c0,2.82,0.23,4.46,1.3,5.42c0.79,0.68,1.75,1.02,3.5,1.02c2.09,0,4.8-1.41,6.38-2.26V197.1c0-0.62,0.51-1.19,1.13-1.19h5.2
		c0.62,0,1.13,0.57,1.13,1.19v29.54C1721.76,227.26,1721.25,227.77,1720.63,227.77L1720.63,227.77z"/>
		<path class="st5" d="M1743.11,202.01c-1.58-0.23-4.07-0.4-5.42-0.4c-4.86,0-6.04,3.45-6.04,8.08v4.35c0,4.63,1.19,8.08,6.04,8.08
		c2.03,0,4.35-0.17,5.42-0.4V202.01L1743.11,202.01z M1749.04,226.75c-3.5,0.9-7.74,1.47-11.35,1.47c-9.09,0-13.5-5.37-13.5-14.18
		v-4.35c0-8.81,4.41-14.18,13.5-14.18c1.36,0,3.33,0.11,5.42,0.4v-10c0-0.62,0.51-1.13,1.13-1.13h5.2c0.62,0,1.13,0.51,1.13,1.13
		v39.31C1750.57,226.07,1750.34,226.41,1749.04,226.75L1749.04,226.75z"/>
		<path class="st5" d="M1772.53,209.58c0-4.63-2.09-7.63-6.04-7.63c-3.95,0-6.04,2.99-6.04,7.63v4.57c0,4.63,2.09,7.62,6.04,7.62
		c3.95,0,6.04-2.99,6.04-7.62V209.58L1772.53,209.58z M1766.49,228.22c-8.87,0-13.5-5.99-13.5-14.06v-4.57
		c0-8.08,4.63-14.06,13.5-14.06c8.87,0,13.5,5.99,13.5,14.06v4.57C1779.99,222.23,1775.35,228.22,1766.49,228.22L1766.49,228.22z"/>
		<path class="st5" d="M1801.22,206.42c0-2.71-1.19-4.8-6.04-4.8c-4.8,0-6.1,2.15-6.1,4.8v0.45c0,2.09,0.85,4.46,6.1,4.46
		c4.69,0,6.04-1.64,6.04-4.46V206.42L1801.22,206.42z M1801.84,229.97c0-1.24-0.73-1.98-6.66-3.39l-5.03-1.19
		c-0.85,1.19-1.41,1.92-1.41,3.95v0.51c0,2.32,1.41,3.73,6.72,3.73c5.42,0,6.38-1.19,6.38-3.22V229.97L1801.84,229.97z
		 M1809.01,201.05l-1.86,0.73c0.9,1.3,1.41,2.54,1.41,4.52v0.39c0,7.06-4.86,10.28-13.39,10.28c-2.99,0-5.03-0.51-6.16-0.96
		c-0.68,0.45-0.96,0.96-0.96,1.47c0,1.13,0.62,1.58,1.92,1.86l6.66,1.58c7.68,1.81,12.65,2.99,12.65,9.04v0.39
		c0,5.76-4.24,8.87-13.84,8.87c-9.15,0-14.01-3.44-14.01-9.38v-0.51c0-2.32,1.07-4.57,2.88-6.21c-1.58-1.19-2.54-3.16-2.54-5.2
		v-0.06c0-1.75,0.73-3.5,2.26-4.57c-1.69-1.75-2.32-3.78-2.32-6.61v-0.39c0-5.65,3.67-10.39,13.44-10.39h13.22
		c0.85,0,1.52,0.68,1.52,1.52v2.37C1809.91,200.66,1809.69,200.77,1809.01,201.05L1809.01,201.05z"/>
		<path class="st5" d="M1836.31,227.77h-5.2c-0.62,0-1.13-0.51-1.13-1.13v-1.3c-2.94,1.92-5.25,2.82-8.87,2.82
		c-2.82,0-5.31-0.73-6.95-2.37c-2.09-2.09-2.82-5.59-2.82-10.28V197.1c0-0.62,0.51-1.19,1.13-1.19h5.2c0.62,0,1.13,0.57,1.13,1.19
		v18.41c0,2.82,0.23,4.46,1.3,5.42c0.79,0.68,1.75,1.02,3.5,1.02c2.09,0,4.8-1.41,6.38-2.26V197.1c0-0.62,0.51-1.19,1.13-1.19h5.2
		c0.62,0,1.13,0.57,1.13,1.19v29.54C1837.44,227.26,1836.93,227.77,1836.31,227.77L1836.31,227.77z"/>
		<path class="st5" d="M1745.07,152.05c0,5.56-4.51,10.07-10.07,10.07c-5.56,0-10.07-4.51-10.07-10.07c0-5.56,4.51-10.07,10.07-10.07
		C1740.57,141.98,1745.07,146.49,1745.07,152.05L1745.07,152.05z M1762.04,145.55c-0.55-2.05-0.41-4.31,0.6-6.39
		c2.2-4.5,7.53-6.4,11.91-4.26c4.38,2.15,6.15,7.53,3.95,12.02c-2.2,4.5-7.53,6.4-11.91,4.25c-1.52-0.74-2.7-1.89-3.54-3.24
		C1762.76,147.12,1762.43,146.32,1762.04,145.55L1762.04,145.55z M1707.69,147.82c-0.84,1.35-2.02,2.5-3.54,3.24
		c-4.38,2.14-9.72,0.24-11.91-4.25c-2.2-4.5-0.43-9.88,3.95-12.02c4.38-2.14,9.71-0.23,11.91,4.26c1.02,2.08,1.15,4.34,0.6,6.39
		C1708.32,146.21,1707.99,147.01,1707.69,147.82L1707.69,147.82z M1729.43,127.45c-3.63-3.26-3.86-8.91-0.52-12.63
		c3.34-3.72,8.99-4.1,12.62-0.84c3.63,3.26,3.86,8.92,0.51,12.64c-1.3,1.45-3.28,2.64-5.17,2.67c-0.27-0.01-0.05,0.08-0.32,0.08
		c-0.95,0-1.85,0.06-2.73,0.16C1732.23,129.27,1730.7,128.6,1729.43,127.45L1729.43,127.45z M1725.86,147.87
		c-0.45,0.99-0.76,2.05-0.87,3.18l-16.88-4.26c0.19-0.45,0.39-0.89,0.6-1.33c0.16-0.6,0.25-1.22,0.29-1.84L1725.86,147.87
		L1725.86,147.87z M1761.74,143.61l-17.51,4.42c0.43,0.99,0.71,2.07,0.8,3.19l17.57-4.44c-0.18-0.42-0.36-0.83-0.57-1.23
		C1761.87,144.93,1761.77,144.27,1761.74,143.61L1761.74,143.61z M1736.87,129.26l-0.07,12.9c-0.58-0.11-1.18-0.17-1.8-0.17
		c-0.51,0-1.01,0.05-1.5,0.12l0.05-12.63C1733.6,129.49,1736.73,129.25,1736.87,129.26L1736.87,129.26z"/>
</g>
	<path class="st0" d="M81.74,928.51c2.3,11.1,12.21,18.66,23.15,18.41l6.42,31.68c0.21-0.08,0.43-0.12,0.64-0.19
	c-8.57,3.08-14.72,10.39-16.51,19.02l-38.51-1.48c-1.76-8.24-9.84-13.53-18.11-11.82c-8.3,1.72-13.63,9.84-11.91,18.14
	c1.72,8.3,9.84,13.63,18.14,11.91c5.47-1.13,9.59-5.06,11.32-9.97l38.71,1.49c0.12,1.01,0.29,2.02,0.53,3.03
	c2.88,11.96,13.91,20.09,25.91,19.72l4.99,22.63c-9.2,4.55-14.56,14.86-12.38,25.38c2.59,12.5,14.82,20.54,27.32,17.95
	c7.99-1.65,14.13-7.25,16.87-14.33l68.13,11.05c-0.24,4.04-0.01,8.16,0.85,12.32c2.76,13.35,10.97,24.15,21.8,30.68l-32.08,93.72
	c-3.39-0.56-6.94-0.55-10.51,0.19c-15.54,3.22-25.53,18.43-22.32,33.97c3.22,15.54,18.43,25.54,33.97,22.32
	c25.41-5.26,41.74-30.13,36.48-55.54c-0.38-1.81-0.88-3.56-1.44-5.28l82.48-37.03c15.08,28.58,47.67,45.04,80.9,38.16
	c40.27-8.34,66.15-47.74,57.81-88c-8.34-40.27-47.74-66.15-88-57.81c-40.27,8.34-66.15,47.74-57.81,88
	c0.79,3.81,1.94,7.44,3.25,10.97l-82.52,37.05c-9.85-17.08-29.84-26.76-50.21-22.54c-17.97,3.72-31.35,17.26-35.82,33.85
	l-68.14-11.05c-0.06-1.2-0.18-2.4-0.43-3.62c-2.34-11.28-12.53-18.9-23.69-18.38l-4.91-22.29c11.35-4.81,18.02-17.27,15-29.81
	c-0.11-0.45-0.26-0.88-0.39-1.32l37.94-18.4c10.55,14.35,28.8,22.09,47.38,18.24c25.41-5.26,41.74-30.13,36.48-55.54
	c-5.26-25.41-30.13-41.74-55.54-36.48c-25.41,5.26-41.74,30.13-36.48,55.54c0.81,3.9,2.12,7.55,3.79,10.98l-37.27,18.08
	c-5-6.97-13.32-11.16-22.13-10.79l-6.38-31.72c10.07-4.15,16.1-14.98,13.81-26.04c-2.59-12.5-14.82-20.54-27.32-17.95
	C87.19,903.78,79.15,916.01,81.74,928.51z"/>
</svg>
