<?xml version="1.0" encoding="UTF-8"?>
<!-- Generator: Adobe Illustrator 23.0.2, SVG Export Plug-In . SVG Version: 6.00 Build 0)  -->
<svg version="1.1" id="Ebene_1" xmlns="http://www.w3.org/2000/svg" xmlns:xlink="http://www.w3.org/1999/xlink" x="0px" y="0px" viewBox="0 0 1920 1080" style="enable-background:new 0 0 1920 1080;" xml:space="preserve">
<style type="text/css">
	.st0{fill:#FFFFFF;}
	.st1{opacity:0.11;fill:#858686;}
	.st2{opacity:0.31;}
	.st3{fill:url(#SVGID_1_);}
	.st4{fill:#23A3DD;}
	.st5{clip-path:url(#SVGID_3_);}
	.st6{clip-path:url(#SVGID_5_);fill:#23A3DD;}
</style>
	<g>
	<rect class="st0" width="1920" height="1080"/>
</g>
	<path class="st1" d="M1269.91,1006.46c7.31,8.66,19.62,10.59,29.12,5.15l20.74,24.79c0.15-0.17,0.33-0.31,0.48-0.47  c-6.06,6.79-7.99,16.15-5.46,24.59l-34.56,17.04c-5.48-6.41-15.1-7.21-21.55-1.76c-6.48,5.46-7.3,15.14-1.83,21.62  c5.46,6.48,15.14,7.3,21.62,1.83c4.27-3.6,6.02-9.02,5.2-14.16l34.74-17.14c0.59,0.83,1.21,1.64,1.91,2.42  c8.23,9.15,21.8,11.03,32.18,4.99l15.17,17.52c-5.92,8.39-5.72,20,1.21,28.21c8.23,9.76,22.82,10.99,32.57,2.76  c6.23-5.26,8.97-13.11,8-20.64l65.16-22.75c1.71,3.66,3.88,7.18,6.62,10.42c8.79,10.42,21.15,16.01,33.78,16.59l16.46,97.68  c-3.25,1.12-6.36,2.82-9.15,5.17c-12.13,10.24-13.67,28.37-3.43,40.5c10.24,12.13,28.37,13.67,40.5,3.43  c12.13-10.24,13.67-28.37,3.43-40.5c-5.69-6.74-13.81-10.2-21.99-10.19l-16.28-96.63c8.17-1.3,16.11-4.72,22.89-10.44  c19.83-16.73,22.34-46.38,5.61-66.21c-1.19-1.41-2.47-2.72-3.78-3.95l54.87-71.86c26.88,17.94,63.37,16.88,89.31-5  c31.43-26.52,35.41-73.49,8.89-104.92c-26.52-31.43-73.49-35.41-104.92-8.89s-35.41,73.49-8.89,104.92  c2.51,2.97,5.25,5.62,8.09,8.09l-54.89,71.89c-16.8-10.32-38.99-9.3-54.88,4.11c-14.02,11.83-19.34,30.11-15.36,46.83l-65.17,22.76  c-0.62-1.03-1.3-2.03-2.1-2.97c-7.43-8.81-20.02-10.64-29.58-4.87l-14.94-17.25c7.68-9.64,7.61-23.77-1.02-33.35  c-0.31-0.34-0.65-0.65-0.97-0.98l24.59-34.26c16.11,7.6,35.85,5.69,50.35-6.54c19.83-16.73,22.34-46.38,5.61-66.21  c-16.73-19.83-46.38-22.34-66.21-5.61c-19.83,16.73-22.34,46.38-5.61,66.21c2.57,3.04,5.47,5.63,8.56,7.85l-24.15,33.65  c-7.72-3.74-17.03-3.47-24.59,1.06l-20.72-24.85c6.88-8.45,7.01-20.84-0.27-29.47c-8.23-9.76-22.82-10.99-32.57-2.76  C1262.91,982.12,1261.67,996.71,1269.91,1006.46z"/>
	<g class="st2">
	<linearGradient id="SVGID_1_" gradientUnits="userSpaceOnUse" x1="2053.2361" y1="691.7183" x2="1498.3507" y2="226.1142">
		<stop offset="0" style="stop-color:#23A3DD;stop-opacity:0.6"/>
		<stop offset="0.0585" style="stop-color:#37ABE0;stop-opacity:0.6234"/>
		<stop offset="0.2489" style="stop-color:#73C5E9;stop-opacity:0.6996"/>
		<stop offset="0.4321" style="stop-color:#A5D9F1;stop-opacity:0.7729"/>
		<stop offset="0.6035" style="stop-color:#CCEAF7;stop-opacity:0.8414"/>
		<stop offset="0.7603" style="stop-color:#E8F5FB;stop-opacity:0.9041"/>
		<stop offset="0.8975" style="stop-color:#F9FCFE;stop-opacity:0.959"/>
		<stop offset="1" style="stop-color:#FFFFFF"/>
	</linearGradient>
		<path class="st3" d="M1635.4,64.13c-56.56,54.1-58.55,143.81-4.45,200.37c17.94,18.75,39.79,31.5,63.06,38.2l-82.42,242.1   c-25.89-5.89-54.14,0.44-75.09,19.24c-36.24,32.53-37.49,88.78-2.73,122.89c29.29,28.74,75.26,31.71,107.97,8.28l121.05,109.02   c-18.24,28.61-15.38,67,9.12,92.62c28.79,30.1,76.52,31.16,106.62,2.37s31.16-76.52,2.37-106.62   c-27.29-28.53-71.59-30.95-101.77-6.61L1659.4,678.15c25.58-33.12,23.24-81.16-7.8-111.58c-5.24-5.14-11.02-9.43-17.16-12.92   l83.82-246.21c40.06,4.27,81.66-8.47,113.06-38.49c56.56-54.1,58.55-143.81,4.45-200.37S1691.96,10.02,1635.4,64.13z"/>
</g>
	<path class="st1" d="M133.21,795.91c-11.31-9.37-13.95-25.29-7.02-37.65l-32.35-26.57c0.21-0.19,0.4-0.43,0.61-0.62  c-8.72,7.93-20.82,10.53-31.78,7.35l-21.67,44.96c8.36,7.02,9.51,19.47,2.54,27.89c-7,8.45-19.53,9.63-27.98,2.63  c-8.45-7-9.63-19.53-2.63-27.98c4.61-5.57,11.61-7.91,18.28-6.9l21.78-45.19c-1.08-0.75-2.14-1.55-3.15-2.45  c-11.94-10.55-14.54-28.1-6.84-41.61l-22.87-19.44c-10.79,7.76-25.83,7.64-36.55-1.23c-12.73-10.55-14.5-29.42-3.96-42.15  c6.74-8.13,16.87-11.77,26.63-10.6l28.7-84.66c-4.77-2.18-9.35-4.94-13.58-8.44C7.8,511.98,0.42,496.04-0.48,479.7l-126.69-20.16  c-1.42,4.22-3.58,8.27-6.59,11.91c-13.11,15.83-36.58,18.04-52.41,4.92c-15.83-13.11-18.04-36.58-4.92-52.41  c13.11-15.83,36.58-18.04,52.41-4.92c8.8,7.29,13.37,17.77,13.46,28.36L0.11,467.34c1.58-10.6,5.92-20.92,13.25-29.77  c21.44-25.88,59.8-29.48,85.68-8.05c1.85,1.53,3.55,3.16,5.16,4.85l92.42-71.9c-23.55-34.59-22.61-81.87,5.42-115.72  c33.97-41.01,94.76-46.72,135.77-12.75c41.01,33.97,46.72,94.76,12.75,135.77s-94.76,46.72-135.77,12.75  c-3.88-3.21-7.33-6.73-10.58-10.38l-92.46,71.94c13.57,21.64,12.51,50.38-4.67,71.12c-15.16,18.3-38.77,25.4-60.46,20.45  l-28.7,84.66c1.34,0.79,2.64,1.66,3.88,2.69c11.49,9.52,14.02,25.8,6.66,38.25l22.52,19.15c12.4-10.07,30.69-10.14,43.2,0.93  c0.45,0.4,0.85,0.83,1.28,1.25l44.08-32.25c-10.03-20.78-7.8-46.36,7.88-65.28c21.44-25.88,59.8-29.48,85.68-8.05  c25.88,21.44,29.48,59.8,8.05,85.68c-21.44,25.88-59.8,29.48-85.68,8.05c-3.97-3.29-7.35-7.01-10.26-10.99l-43.3,31.68  c4.94,9.95,4.69,22.02-1.08,31.86l32.42,26.55c10.86-9.01,26.91-9.33,38.17,0c12.73,10.55,14.5,29.42,3.96,42.15  C164.82,804.69,145.95,806.46,133.21,795.91z"/>
	<rect x="1" y="1040" class="st4" width="1919" height="40"/>
	<g id="Cloudogu_Bild-__x2B__Wortmarke_blau_1_">
	<g>
		<defs>
			<rect id="SVGID_2_" x="1633" y="94" width="204.51" height="145.13"/>
		</defs>
		<clipPath id="SVGID_3_">
			<use xlink:href="#SVGID_2_" style="overflow:visible;"/>
		</clipPath>
		<g class="st5">
			<defs>
				<rect id="SVGID_4_" x="1633" y="94" width="204.51" height="145.13"/>
			</defs>
			<clipPath id="SVGID_5_">
				<use xlink:href="#SVGID_4_" style="overflow:visible;"/>
			</clipPath>
			<path class="st6" d="M1780,143.06c0,4.96-4.02,8.99-8.99,8.99c-4.97,0-8.99-4.02-8.99-8.99s4.02-8.99,8.99-8.99     C1775.97,134.07,1780,138.1,1780,143.06"/>
			<path class="st6" d="M1744.71,120.74c0,4.96-4.02,8.99-8.99,8.99c-4.97,0-8.99-4.02-8.99-8.99c0-4.96,4.02-8.99,8.99-8.99     C1740.68,111.75,1744.71,115.78,1744.71,120.74"/>
			<path class="st6" d="M1753.48,100.52c-10.66-9.58-27.27-8.48-37.1,2.45c-6.69,7.44-8.41,17.48-5.53,26.17     c0.09,0.28,1.51,1.49,1.81,1.54c0.57,0.09,3.09,7.16,3.09,7.16s6.46-7.01,6.47-7.03c0.12-0.26,0.24-0.51,0.08-0.74     c-4.32-6.14-4.18-14.77,1.18-20.73c6.21-6.92,16.23-7.3,23.25-1.56c5.44,4.45,8.52,14.28,1.92,23.1c-0.11,0.15,6.9,7.7,6.91,7.19     c0.07-2.43,4.06-8.05,4.19-8.36C1763.89,119.7,1761.83,108.03,1753.48,100.52"/>
			<path class="st6" d="M1722.02,129.61c-6.96-11.91-20.68-16.89-33.57-10.59c-12.87,6.29-18.08,22.11-11.62,35.32     c5.94,12.14,22.66,17.59,31.93,14.14c-0.32-1.17-1.95-7.21-2.03-9.32c-11.58,0.02-16.49-1.18-21.33-9.02     c-4.44-7.19-0.8-18.36,7.35-22.34c8.15-3.98,17.82-0.68,21.9,7.68c0.35,0.71,0.77,1.9,1,2.63c0,0,0.18,0.7,0.18,0.7     c0-0.01,0.25-0.3,0.25-0.3c0.85-0.83,4.24-4.61,8.11-6.27C1724.08,131.97,1722.67,130.71,1722.02,129.61"/>
			<path class="st6" d="M1782.91,119.09c-14.81-6.49-26.66-0.72-33.61,10.88c-0.36,0.6-1.1,1.53-1.89,2.23     c3.11,1.63,4.82,3.02,7.55,5.69c0.11,0.11,0.52,0.56,0.53,0.57c0.01-0.08,0.01-0.06,0.07-0.27c0.25-0.81,0.5-1.62,0.89-2.4     c4.08-8.35,14-11.89,22.15-7.91c8.14,3.98,11.43,13.99,7.35,22.34c-3.94,8.06-13.07,9.12-21.31,8.9c-0.05,1.21-0.2,1.72-0.44,2.9     v0.01c-0.06,1.04-0.16,2.07-0.3,3.09c0,0.01,0,0.02,0,0.03c-0.01,0.03-0.01,0.06-0.02,0.1c-0.16,1.06-0.35,2.1-0.61,3.13     c7.66,3.57,25.05-1.12,31.26-13.96C1800.93,141.17,1795.22,124.49,1782.91,119.09"/>
			<path class="st6" d="M1748.16,159.13c-1.61,3.52-6.6,7.23-12.56,7.23c-5.4,0-10.56-3.71-12.17-7.23l-18.48,0.03l-2.41,10.35     l67.32,0.02l-0.15-10.4H1748.16z"/>
			<path class="st6" d="M1737.4,129.33l-0.07,12.86c-0.58-0.11-1.18-0.17-1.79-0.17c-0.51,0-1,0.05-1.49,0.12l0.05-12.81     C1734.13,129.34,1737.25,129.32,1737.4,129.33"/>
			<path class="st6" d="M1762.19,143.64l-17.46,4.41c0.43,0.99,0.71,2.06,0.8,3.18l17.52-4.43c-0.18-0.41-0.36-0.83-0.56-1.23     C1762.32,144.95,1762.22,144.3,1762.19,143.64"/>
			<path class="st6" d="M1708.92,142.96c0,4.96-4.02,8.99-8.99,8.99c-4.97,0-8.99-4.03-8.99-8.99c0-4.96,4.02-8.99,8.99-8.99     C1704.9,133.97,1708.92,137.99,1708.92,142.96"/>
			<path class="st6" d="M1745.75,151.72c0.19,5.81-4.56,10.55-10.37,10.37c-5.26-0.17-9.54-4.45-9.7-9.71     c-0.18-5.8,4.56-10.55,10.36-10.36C1741.3,142.18,1745.58,146.46,1745.75,151.72"/>
			<path class="st6" d="M1708.34,145.56c-0.2,0.4-0.37,0.77-0.54,1.19l18.13,4.49c0.09-1.12,0.21-2.17,0.64-3.15l-17.93-4.44     C1708.6,144.3,1708.51,144.93,1708.34,145.56"/>
			<path class="st6" d="M1653.18,227.37c-1.3,0.34-3.84,0.73-7.29,0.73c-7.35,0-12.89-4.52-12.89-13.73v-5.26     c0-9.21,5.54-13.73,12.89-13.73c3.45,0,5.99,0.4,7.29,0.73c0.96,0.23,1.19,0.57,1.19,1.47v3.67c0,0.57-0.45,0.85-1.02,0.85h-0.17     c-2.26-0.28-3.62-0.4-7.29-0.4c-2.66,0-5.43,1.53-5.43,7.4v5.26c0,5.88,2.77,7.4,5.43,7.4c3.67,0,5.03-0.11,7.29-0.4h0.17     c0.57,0,1.02,0.28,1.02,0.85v3.67C1654.36,226.81,1654.14,227.15,1653.18,227.37"/>
			<path class="st6" d="M1662.72,227.66h-5.26c-0.62,0-1.13-0.57-1.13-1.19v-40.69c0-0.62,0.51-1.13,1.13-1.13h5.26     c0.62,0,1.07,0.51,1.07,1.13v40.69C1663.79,227.09,1663.34,227.66,1662.72,227.66"/>
			<path class="st6" d="M1679.79,228.11c-8.87,0-13.51-5.99-13.51-14.07v-4.58c0-8.08,4.63-14.07,13.51-14.07     c8.87,0,13.51,5.99,13.51,14.07v4.58C1693.3,222.12,1688.66,228.11,1679.79,228.11 M1685.84,209.46c0-4.63-2.09-7.63-6.05-7.63     c-3.96,0-6.05,3-6.05,7.63v4.58c0,4.63,2.09,7.63,6.05,7.63c3.96,0,6.05-3,6.05-7.63V209.46z"/>
			<path class="st6" d="M1720.62,227.66h-5.2c-0.62,0-1.13-0.51-1.13-1.13v-1.3c-2.94,1.92-5.26,2.83-8.87,2.83     c-2.83,0-5.31-0.73-6.95-2.37c-2.09-2.09-2.83-5.6-2.83-10.29v-18.43c0-0.62,0.51-1.19,1.13-1.19h5.2c0.62,0,1.13,0.57,1.13,1.19     v18.43c0,2.83,0.23,4.46,1.3,5.43c0.79,0.68,1.75,1.02,3.5,1.02c2.09,0,4.8-1.41,6.39-2.26v-22.61c0-0.62,0.51-1.19,1.13-1.19     h5.2c0.62,0,1.13,0.57,1.13,1.19v29.56C1721.75,227.15,1721.24,227.66,1720.62,227.66"/>
			<path class="st6" d="M1749.05,226.64c-3.5,0.9-7.74,1.47-11.36,1.47c-9.1,0-13.51-5.37-13.51-14.19v-4.35     c0-8.82,4.41-14.19,13.51-14.19c1.36,0,3.33,0.11,5.43,0.4v-10c0-0.62,0.51-1.13,1.13-1.13h5.2c0.62,0,1.13,0.51,1.13,1.13v39.34     C1750.58,225.96,1750.35,226.3,1749.05,226.64 M1743.12,201.88c-1.58-0.23-4.07-0.4-5.43-0.4c-4.86,0-6.05,3.45-6.05,8.08v4.35     c0,4.63,1.19,8.08,6.05,8.08c2.03,0,4.35-0.17,5.43-0.4V201.88z"/>
			<path class="st6" d="M1766.51,228.11c-8.87,0-13.51-5.99-13.51-14.07v-4.58c0-8.08,4.63-14.07,13.51-14.07     c8.87,0,13.51,5.99,13.51,14.07v4.58C1780.02,222.12,1775.38,228.11,1766.51,228.11 M1772.56,209.46c0-4.63-2.09-7.63-6.05-7.63     c-3.96,0-6.05,3-6.05,7.63v4.58c0,4.63,2.09,7.63,6.05,7.63c3.96,0,6.05-3,6.05-7.63V209.46z"/>
			<path class="st6" d="M1809.06,200.92l-1.87,0.73c0.9,1.3,1.41,2.54,1.41,4.52v0.39c0,7.07-4.86,10.29-13.4,10.29     c-3,0-5.03-0.51-6.16-0.96c-0.68,0.45-0.96,0.96-0.96,1.47c0,1.13,0.62,1.58,1.92,1.87l6.67,1.58c7.69,1.81,12.66,3,12.66,9.04     v0.4c0,5.77-4.24,8.87-13.85,8.87c-9.16,0-14.02-3.45-14.02-9.38v-0.51c0-2.32,1.07-4.58,2.88-6.22     c-1.58-1.19-2.54-3.16-2.54-5.2v-0.06c0-1.75,0.73-3.5,2.26-4.58c-1.7-1.75-2.32-3.79-2.32-6.61v-0.39     c0-5.65,3.67-10.4,13.45-10.4h13.23c0.85,0,1.53,0.68,1.53,1.53v2.37C1809.97,200.53,1809.74,200.64,1809.06,200.92      M1801.88,229.86c0-1.24-0.73-1.98-6.67-3.39l-5.03-1.19c-0.85,1.19-1.41,1.92-1.41,3.96v0.51c0,2.32,1.41,3.73,6.73,3.73     c5.43,0,6.39-1.19,6.39-3.22V229.86z M1801.26,206.29c0-2.71-1.19-4.8-6.05-4.8c-4.8,0-6.1,2.15-6.1,4.8v0.45     c0,2.09,0.85,4.46,6.1,4.46c4.69,0,6.05-1.64,6.05-4.46V206.29z"/>
			<path class="st6" d="M1836.38,227.66h-5.2c-0.62,0-1.13-0.51-1.13-1.13v-1.3c-2.94,1.92-5.26,2.83-8.87,2.83     c-2.83,0-5.31-0.73-6.95-2.37c-2.09-2.09-2.83-5.6-2.83-10.29v-18.43c0-0.62,0.51-1.19,1.13-1.19h5.2c0.62,0,1.13,0.57,1.13,1.19     v18.43c0,2.83,0.23,4.46,1.3,5.43c0.79,0.68,1.75,1.02,3.5,1.02c2.09,0,4.8-1.41,6.39-2.26v-22.61c0-0.62,0.51-1.19,1.13-1.19     h5.2c0.62,0,1.13,0.57,1.13,1.19v29.56C1837.51,227.15,1837.01,227.66,1836.38,227.66"/>
		</g>
	</g>
</g>
	<path class="st1" d="M81.74,928.51c2.3,11.1,12.21,18.66,23.15,18.41l6.42,31.68c0.21-0.08,0.43-0.12,0.64-0.19  c-8.57,3.08-14.72,10.39-16.51,19.02l-38.51-1.48c-1.76-8.24-9.84-13.53-18.11-11.82c-8.3,1.72-13.63,9.84-11.91,18.14  c1.72,8.3,9.84,13.63,18.14,11.91c5.47-1.13,9.59-5.06,11.32-9.97l38.71,1.49c0.12,1.01,0.29,2.02,0.53,3.03  c2.88,11.96,13.91,20.09,25.91,19.72l4.99,22.63c-9.2,4.55-14.56,14.86-12.38,25.38c2.59,12.5,14.82,20.54,27.32,17.95  c7.99-1.65,14.13-7.25,16.87-14.33l68.13,11.05c-0.24,4.04-0.01,8.16,0.85,12.32c2.76,13.35,10.97,24.15,21.8,30.68l-32.08,93.72  c-3.39-0.56-6.94-0.55-10.51,0.19c-15.54,3.22-25.53,18.43-22.32,33.97c3.22,15.54,18.43,25.54,33.97,22.32  c15.54-3.22,25.53-18.43,22.32-33.97c-1.79-8.64-7.28-15.55-14.48-19.44l31.73-92.71c7.8,2.75,16.41,3.53,25.1,1.73  c25.41-5.26,41.74-30.13,36.48-55.54c-0.38-1.81-0.88-3.56-1.44-5.28l82.48-37.03c15.08,28.58,47.67,45.04,80.9,38.16  c40.27-8.34,66.15-47.74,57.81-88c-8.34-40.27-47.74-66.15-88-57.81c-40.27,8.34-66.15,47.74-57.81,88  c0.79,3.81,1.94,7.44,3.25,10.97l-82.52,37.05c-9.85-17.08-29.84-26.76-50.21-22.54c-17.97,3.72-31.35,17.26-35.82,33.85  l-68.14-11.05c-0.06-1.2-0.18-2.4-0.43-3.62c-2.34-11.28-12.53-18.9-23.69-18.38l-4.91-22.29c11.35-4.81,18.02-17.27,15-29.81  c-0.11-0.45-0.26-0.88-0.39-1.32l37.94-18.4c10.55,14.35,28.8,22.09,47.38,18.24c25.41-5.26,41.74-30.13,36.48-55.54  c-5.26-25.41-30.13-41.74-55.54-36.48c-25.41,5.26-41.74,30.13-36.48,55.54c0.81,3.9,2.12,7.55,3.79,10.98l-37.27,18.08  c-5-6.97-13.32-11.16-22.13-10.79l-6.38-31.72c10.07-4.15,16.1-14.98,13.81-26.04c-2.59-12.5-14.82-20.54-27.32-17.95  C87.19,903.78,79.15,916.01,81.74,928.51z"/>
</svg>